<svg width="400" height="400" viewBox="0 0 400 400" fill="none" xmlns="http://www.w3.org/2000/svg">
<rect width="400" height="400" rx="100" fill="white"/>
<path d="M95.8333 95.8333L304.167 304.167" stroke="black" stroke-width="30" stroke-linecap="round" stroke-linejoin="round"/>
<path d="M161.979 103.021C180.84 95.6544 201.439 93.9446 221.256 98.1004C241.073 102.256 259.249 112.098 273.561 126.421C287.873 140.744 297.701 158.928 301.841 178.748C305.982 198.568 304.256 219.166 296.875 238.021" stroke="black" stroke-width="30" stroke-linecap="round" stroke-linejoin="round"/>
<path d="M273.75 273.75C264.065 283.435 252.567 291.118 239.913 296.359C227.259 301.6 213.697 304.298 200 304.298C186.303 304.298 172.741 301.6 160.087 296.359C147.433 291.118 135.935 283.435 126.25 273.75C116.565 264.065 108.882 252.567 103.641 239.913C98.3995 227.259 95.7018 213.697 95.7018 200C95.7018 186.303 98.3995 172.741 103.641 160.087C108.882 147.433 116.565 135.935 126.25 126.25" stroke="black" stroke-width="30" stroke-linecap="square" stroke-linejoin="round"/>
</svg>